OpenSim_Sub08_CSStiffKnee_GRF.mot
version=1
nRows=29
nColumns=19
inDegrees=no
endheader
time	lFx	lFy	lFz	lCOPx	lCOPy	lCOPz	rFx	rFy	rFz	rCOPx	rCOPy	rCOPz	lMx	lMy	lMz	rMx	rMy	rMz
39.61000000	65.19195759	494.83132367	29.06817649	0.40149557	0	-0.66073980	0.32473545	0.68115076	0.17199893	0.00022725	0	-0.00011755	0	0.12295111	0	0	0.00032437	0.00000000
39.62000000	68.50443867	483.62300027	28.06331780	0.39493845	0	-0.66048750	0.35355212	0.86902217	0.14096951	0.00062547	0	-0.00033818	0	0.32061068	0	0	0.00039495	0.00000000
39.63000000	71.37185154	469.80330030	26.80812129	0.38839013	0	-0.66022158	0.41481064	1.00411881	0.15784959	0.00105151	0	-0.00058873	0	0.59047237	0	0	-0.00002188	-0.00000000
39.64000000	73.53870834	452.78945996	25.29235675	0.38193285	0	-0.65988108	0.49372641	0.98301838	0.17158815	0.00084472	0	-0.00051849	0	0.86578498	0	0	-0.00156454	-0.00000000
39.65000000	74.76914542	431.49127148	23.25507088	0.37540189	0	-0.65940420	0.53683633	0.72723515	0.11606488	-0.00140332	0	0.00064639	0	1.13862856	0	0	-0.00470275	-0.00000000
39.66000000	74.80429095	404.82007700	20.50471437	0.36872857	0	-0.65864315	0.51270983	0.11251210	0.06400261	-0.00749564	0	0.00394327	0	1.40076039	0	0	-0.00845250	0
39.67000000	73.31805746	372.08702428	17.04145785	0.36232702	0	-0.65762949	0.34069299	-0.84878980	-0.02149878	-0.01760689	0	0.00961088	0	1.58503544	0	0	-0.00802278	0.00000000
39.68000000	69.93294336	332.90264058	13.01571696	0.35658011	0	-0.65681314	-0.16788823	-1.84416710	-0.18995955	-0.02543449	0	0.01444598	0	1.63792737	0	0	0.00751029	0
39.69000000	64.45308666	287.35973917	8.76642343	0.35202499	0	-0.65734042	-1.14092279	-1.58620287	-0.27228184	-0.01103740	0	0.00774494	0	1.51453509	0	0	0.05339440	0
39.70000000	56.61269031	237.25828485	4.84743146	0.34923210	0	-0.66087719	-2.22335068	3.01165787	0.17922410	0.06268268	0	-0.03108673	0	1.19323480	0	0	0.13484800	0
39.71000000	46.21169993	186.90113752	1.94163532	0.34913779	0	-0.66851789	-2.03661532	16.66643817	1.75925719	0.23359022	0	-0.12445794	0	0.54594102	0	0	0.21001633	0
39.72000000	34.00414900	141.06061415	0.36416184	0.35102662	0	-0.67762932	0.39267646	44.17854829	5.14928725	0.47743478	0	-0.26299737	0	-0.50542100	0	0	0.13153236	0
39.73000000	21.77140301	102.48311605	-0.29052688	0.34814530	0	-0.67656982	2.42606370	87.18758153	10.22412571	0.66909430	0	-0.37521187	0	-1.65116512	0	0	-0.30632699	0
39.74000000	11.38681739	71.57209759	-0.71407622	0.32723093	0	-0.63940240	0.30395127	143.08102121	14.13730014	0.76019034	0	-0.42923151	0	-2.44173878	0	0	-0.81141971	0.00000000
39.75000000	4.00362701	47.22228086	-1.32088638	0.27099726	0	-0.53022199	-7.00109915	205.72249626	15.09233324	0.78221479	0	-0.44240050	0	-2.58048504	0	0	-1.22064387	0
39.76000000	-0.32621060	28.23896954	-2.17983320	0.17383221	0	-0.33737412	-17.14943780	266.09203157	12.70788916	0.77513050	0	-0.43774716	0	-1.98235235	0	0	-1.49571027	-0.00000000
39.77000000	-1.96293813	14.13389595	-3.29589732	0.07308454	0	-0.13951089	-26.36703722	315.24773226	6.54769104	0.76240967	0	-0.42944673	0	-0.98525945	0	0	-1.58728327	-0.00000000
39.78000000	-1.39526858	4.73694677	-4.52258245	0.01311371	0	-0.02356977	-32.24944422	347.94685489	-2.83335788	0.75221957	0	-0.42281768	0	-0.27201526	0	0	-1.57555012	0
39.79000000	0.05334227	-0.25433764	-5.57532527	-0.00869529	0	0.01777856	-34.74762307	365.06395662	-14.20938073	0.74479121	0	-0.41844466	0	0.04040266	0	0	-1.60278106	-0.00000000
39.80000000	1.10575941	-1.94141613	-6.05632714	-0.01047274	0	0.02055759	-35.51366379	374.13829076	-26.82755160	0.73881770	0	-0.41537350	0	0.10432855	0	0	-1.67096938	0.00000000
39.81000000	1.59279646	-1.94891912	-6.23277419	-0.00615510	0	0.01189497	-36.50172321	385.55282907	-40.01120272	0.73352815	0	-0.41265543	0	0.07350548	0	0	-1.70010261	-0.00000000
39.82000000	1.69209344	-1.48159954	-6.25723487	-0.00220335	0	0.00417404	-38.32151850	405.83109077	-52.18386733	0.72902958	0	-0.40993706	0	0.03178228	0	0	-1.68529985	0
39.83000000	1.62971809	-1.14913848	-6.17318646	-0.00015419	0	0.00023019	-40.21414385	434.63389099	-60.85310879	0.72554590	0	-0.40746809	0	0.00625340	0	0	-1.75251453	-0.00000000
39.84000000	1.53131241	-1.01884130	-6.16797679	0.00045669	0	-0.00091509	-41.74796895	468.29031604	-65.02945482	0.72249623	0	-0.40551828	0	-0.00333713	0	0	-1.98540471	-0.00000000
39.85000000	1.44864070	-0.96141262	-6.15761495	0.00040907	0	-0.00079890	-42.58014723	502.55737749	-66.17918934	0.71916289	0	-0.40409054	0	-0.00434118	0	0	-2.18814835	0.00000000
39.86000000	1.39607905	-0.83883932	-6.15747242	0.00020955	0	-0.00040314	-42.56828813	532.77866432	-66.01644429	0.71502089	0	-0.40296248	0	-0.00262191	0	0	-2.33634879	0
39.87000000	1.33776015	-0.69114217	-6.15680558	0.00006117	0	-0.00011452	-41.90383712	555.05030135	-66.09627648	0.71039611	0	-0.40193960	0	-0.00097021	0	0	-2.45445556	0
39.88000000	1.29452848	-0.58761921	-6.13678250	-0.00000592	0	0.00001394	-40.93771265	567.54422152	-67.39916999	0.70581277	0	-0.40091332	0	-0.00009118	0	0	-2.57956672	-0.00000000
39.89000000	1.28884219	-0.54410133	-6.17836077	-0.00002092	0	0.00004145	-39.88962230	571.09725807	-70.13387606	0.70148089	0	-0.39989022	0	0.00018239	0	0	-2.72774374	-0.00000000
